<svg width="118" height="40" viewBox="0 0 118 40" fill="none" xmlns="http://www.w3.org/2000/svg">
<path fill-rule="evenodd" clip-rule="evenodd" d="M8.87627 25.5093C8.03147 25.1081 7.22699 24.6162 6.483 24.0456C5.74506 23.479 5.06156 22.8338 4.45467 22.1261C3.43244 20.9365 2.63603 19.5937 2.08359 18.134C1.51098 16.6238 1.22266 15.031 1.22266 13.3999C1.22266 11.5893 1.57751 9.83517 2.27714 8.18186C2.7812 6.99027 3.45664 5.87731 4.28329 4.87525C5.1039 3.87923 6.06362 3.00822 7.13223 2.28641C9.34605 0.790362 11.9369 0 14.6225 0C16.4311 0 18.1852 0.354857 19.8345 1.05449C21.3305 1.68758 22.6874 2.57876 23.869 3.70583C24.7621 4.5587 25.5283 5.51842 26.1513 6.5709L22.879 9.85735L16.9331 15.8294C16.2234 15.4806 15.4351 15.2951 14.6205 15.2951C13.2212 15.2951 11.9046 15.8395 10.9147 16.8295C9.92471 17.8194 9.38032 19.136 9.38032 20.5353C9.38032 21.9346 9.92672 23.2512 10.9167 24.2411L10.9227 24.2472C11.5014 24.8238 12.1909 25.2472 12.941 25.5013V26.6949C12.4974 26.6405 12.0599 26.5638 11.6284 26.465C10.6808 26.2493 9.75534 25.9267 8.87627 25.5093ZM24.0724 11.0409C26.2177 11.9562 28.1089 13.3535 29.6069 15.0975C31.8752 17.7368 33.2462 21.1684 33.2462 24.9206C33.2462 27.0034 32.8228 28.9853 32.0607 30.7899C29.7703 36.2014 24.4111 40 18.1648 40C16.943 40 15.7574 39.8548 14.6203 39.5806C9.97691 38.4616 6.16825 35.1913 4.31131 30.8846L8.15424 27.0256C10.114 27.9571 12.3057 28.4793 14.6203 28.4793V24.094C13.6404 24.094 12.7512 23.6968 12.1081 23.0556L12.104 23.0516C11.4609 22.4064 11.0616 21.5172 11.0616 20.5333C11.0616 19.5514 11.4588 18.6622 12.104 18.017C12.7472 17.3739 13.6364 16.9746 14.6203 16.9746C15.6022 16.9746 16.4893 17.3698 17.1325 18.011L24.0724 11.0409Z" fill="#1E88E5"/>
<path fill-rule="evenodd" clip-rule="evenodd" d="M105.09 8.7702C106.066 7.7944 107.419 7.29043 109.12 7.29043C113.527 7.29043 116.677 10.7539 116.677 15.5707C116.677 20.3574 113.527 23.7888 109.12 23.7888C107.138 23.7888 105.626 23.1282 104.618 21.805V23.4113H99.675V0.0582271L105.09 0V8.7702ZM104.996 15.5707C104.996 17.8697 106.538 18.8776 108.05 18.8776C109.686 18.8776 111.136 17.7432 111.136 15.5386C111.136 13.334 109.624 12.2016 108.05 12.2016C106.538 12.2016 104.996 13.3039 104.996 15.5707ZM50.4918 11.037L48.0985 10.0291C46.8075 9.49303 46.3035 9.11555 46.3035 8.32848C46.3035 7.35268 47.0585 7.00532 48.1608 7.00532C49.767 7.00532 50.6163 7.82452 51.5921 9.20992L55.2123 6.43912C53.9835 4.04578 51.7487 2.25078 48.0965 2.25078C43.8781 2.25078 40.8242 4.70636 40.8242 8.39073C40.8242 11.3181 42.7758 13.1774 46.0827 14.6572L48.223 15.6008C49.7028 16.2313 50.3332 16.5445 50.3332 17.5223C50.3332 18.5303 49.6084 19.0342 48.1929 19.0342C45.8317 19.0342 44.6029 17.7111 43.5648 16.3578L39.9126 19.1286C41.3924 21.9315 44.384 23.7888 48.1929 23.7888C52.4756 23.7888 55.8126 21.3954 55.8126 17.3035C55.8126 14.2496 53.9875 12.5188 50.4918 11.037ZM54.5391 39.8153H52.8023V27.4069H54.5391V39.8153ZM51.4453 31.2273L50.1221 32.2031C49.3451 31.0125 48.2187 30.3178 46.763 30.3178C44.5122 30.3178 42.8257 32.0385 42.8257 34.3535C42.8257 36.6706 44.5122 38.3913 46.763 38.3913C48.2187 38.3913 49.3431 37.6966 50.1221 36.5059L51.4453 37.4817C50.5197 39.0037 48.815 39.9955 46.763 39.9955C43.5525 39.9955 41.0226 37.5801 41.0226 34.3535C41.0226 31.1611 43.5545 28.7115 46.763 28.7115C48.815 28.7135 50.5036 29.7054 51.4453 31.2273ZM62.7294 31.6916V32.8341C62.117 31.9908 61.091 31.5109 59.9024 31.5109C57.5854 31.5109 55.9148 33.332 55.9148 35.7635C55.9148 38.1789 57.5854 39.998 59.9024 39.998C61.0428 39.998 62.0688 39.5523 62.6812 38.7572V39.8153H64.3518V31.6916H62.7294ZM60.1634 38.4078C58.774 38.4078 57.6817 37.3497 57.6817 35.7615C57.6817 34.2235 58.7579 33.0991 60.1634 33.0971C61.4022 33.0971 62.611 33.9082 62.611 35.7615C62.611 37.5966 61.3541 38.4078 60.1634 38.4078ZM71.6459 32.7678L70.7023 33.844C70.1722 33.3139 69.4956 33.0168 68.7828 33.0168C68.1383 33.0168 67.6745 33.2657 67.6745 33.7938C67.6745 34.2395 68.0218 34.4383 68.7667 34.7535L69.5277 35.0688C70.9994 35.6812 71.7604 36.3257 71.7604 37.5183C71.7604 39.1567 70.387 40 68.7486 40C67.293 40 66.1846 39.3555 65.4739 38.4279L66.4497 37.3356C67.1123 38.0143 67.823 38.4941 68.7486 38.4941C69.4594 38.4941 70.0397 38.197 70.0397 37.5846C70.0397 37.0545 69.5759 36.8397 68.9153 36.5746L68.0881 36.2273C66.781 35.6972 65.9698 35.0688 65.9698 33.8621C65.9698 32.3562 67.2267 31.5129 68.831 31.5129C70.0236 31.5109 70.9673 31.9566 71.6459 32.7678ZM77.5992 33.844L78.5429 32.7678C77.8663 31.9566 76.9226 31.5109 75.7279 31.5129C74.1237 31.5129 72.8668 32.3562 72.8668 33.8621C72.8668 35.0688 73.6779 35.6972 74.985 36.2273L75.8122 36.5746C76.4728 36.8397 76.9366 37.0545 76.9366 37.5846C76.9366 38.197 76.3564 38.4941 75.6456 38.4941C74.72 38.4941 74.0092 38.0143 73.3466 37.3356L72.3708 38.4279C73.0816 39.3555 74.1899 40 75.6456 40C77.284 40 78.6573 39.1567 78.6573 37.5183C78.6573 36.3257 77.8964 35.6812 76.4246 35.0688L75.6637 34.7535C74.9188 34.4383 74.5714 34.2395 74.5714 33.7938C74.5714 33.2657 75.0352 33.0168 75.6797 33.0168C76.3905 33.0168 77.0691 33.3139 77.5992 33.844ZM84.6804 31.6916V33.2296H84.1504C82.8593 33.2296 81.7671 33.9745 81.7671 35.4804V39.8153H80.0303V31.6916H81.6346V32.7839C82.2128 32.0068 83.0742 31.6093 84.0178 31.6093C84.301 31.6093 84.4997 31.6414 84.6804 31.6916ZM89.3792 39.998C91.7625 39.998 93.698 38.1287 93.698 35.7454C93.698 33.3802 91.7625 31.5109 89.3952 31.5109C86.9979 31.5109 85.0945 33.3802 85.0945 35.7454C85.0945 38.1287 86.9959 39.998 89.3792 39.998ZM89.3792 38.3917C87.9235 38.3917 86.8814 37.2673 86.8814 35.7615C86.8814 34.2556 87.9074 33.0991 89.3973 33.0971C90.8188 33.0971 91.9111 34.2556 91.9111 35.7615C91.9111 37.2673 90.8349 38.3917 89.3792 38.3917ZM103.145 35.7454C103.145 38.1287 101.209 39.998 98.8259 39.998C96.4426 39.998 94.5412 38.1287 94.5412 35.7454C94.5412 33.3802 96.4446 31.5109 98.8419 31.5109C101.209 31.5109 103.145 33.3802 103.145 35.7454ZM96.3281 35.7615C96.3281 37.2673 97.3702 38.3917 98.8259 38.3917C100.282 38.3917 101.358 37.2673 101.358 35.7615C101.358 34.2556 100.265 33.0971 98.8439 33.0971C97.3541 33.0991 96.3281 34.2556 96.3281 35.7615ZM116.677 39.8153V34.7355C116.677 32.8341 115.601 31.5109 113.684 31.5109C112.475 31.5109 111.515 32.0249 110.937 32.8019C110.457 32.0068 109.646 31.5109 108.471 31.5109C107.479 31.5109 106.652 31.8743 106.106 32.4867V31.6916H104.502V39.8153H106.239V34.9844C106.239 33.8601 106.965 33.0991 108.026 33.0991C109.086 33.0991 109.73 33.8601 109.73 34.9844V39.8153H111.467V34.9021C111.467 33.8601 112.196 33.0991 113.254 33.0991C114.312 33.0991 114.94 33.8601 114.94 34.9844V39.8153H116.677ZM64.3137 10.5431H71.9033V2.95352H77.3184V23.7346H71.9033V15.4221H64.3137V23.7346H58.8986V2.95352H64.3137V10.5431ZM90.8571 16.5164C90.8571 17.8697 89.8813 18.8154 88.5902 18.8154C87.2369 18.8154 86.2913 17.8717 86.2913 16.5164V7.66992H80.8761V16.0767C80.8761 20.7369 84.1509 23.7908 88.5902 23.7908C92.9974 23.7908 96.2722 20.7369 96.2722 16.0767V7.66992H90.8571V16.5164Z" fill="#1E88E5"/>
</svg>
